<svg width="1920" height="768" viewBox="0 0 1920 768" fill="none" xmlns="http://www.w3.org/2000/svg">
<path d="M2201.44 670.733C2222.28 681.534 2247.93 673.396 2258.73 652.557C2269.53 631.718 2261.4 606.068 2240.56 595.267L2201.44 670.733ZM1315.51 597.687L1285.66 567.444L1315.51 597.687ZM1357.56 552.76L1328.18 522.056L1357.56 552.76ZM447.609 444.548L440.209 486.399L447.609 444.548ZM1333.5 579.93L1303.64 549.687L1333.5 579.93ZM1343.67 568.343L1377.53 594.029L1343.67 568.343ZM273.964 457.004L440.209 486.399L455.009 402.697L288.763 373.303L273.964 457.004ZM574.051 550.317L687.063 648.653L742.859 584.53L629.848 486.194L574.051 550.317ZM1345.37 627.931L1363.36 610.173L1303.64 549.687L1285.66 567.444L1345.37 627.931ZM1386.95 583.463L1393.62 577.081L1334.85 515.675L1328.18 522.056L1386.95 583.463ZM1884.68 506.552L2201.44 670.733L2240.56 595.267L1923.79 431.086L1884.68 506.552ZM1393.62 577.081C1525.38 450.973 1722.75 422.624 1884.68 506.552L1923.79 431.086C1729.59 330.429 1492.87 364.428 1334.85 515.675L1393.62 577.081ZM687.063 648.653C878.163 814.938 1165.11 805.905 1345.37 627.931L1285.66 567.444C1137.02 714.189 900.427 721.636 742.859 584.53L687.063 648.653ZM1377.53 594.029C1380.39 590.264 1383.54 586.731 1386.95 583.463L1328.18 522.056C1321.52 528.427 1315.38 535.315 1309.81 542.656L1377.53 594.029ZM440.209 486.399C489.796 495.167 536.063 517.262 574.051 550.317L629.848 486.194C580.223 443.014 519.785 414.15 455.009 402.697L440.209 486.399ZM1363.36 610.173C1368.46 605.136 1373.2 599.741 1377.53 594.029L1309.81 542.656C1307.92 545.144 1305.86 547.493 1303.64 549.687L1363.36 610.173ZM-146.23 9.77966C-120.687 235.471 50.3011 417.458 273.964 457.004L288.763 373.303C102.18 340.312 -40.4605 188.496 -61.7696 0.220344L-146.23 9.77966Z" fill="#F3C301"/>
</svg>
