<svg width="1606" height="458" viewBox="0 0 1606 458" fill="none" xmlns="http://www.w3.org/2000/svg">
<path d="M1522.33 32.7574C1517.24 26.7177 1507.58 26.511 1500.71 32.2947L1463.45 63.664L1481.83 85.5022L1519.1 54.1329C1525.97 48.3492 1527.41 38.797 1522.33 32.7574ZM1577.47 98.2721C1572.39 92.2325 1562.73 92.0257 1555.86 97.8094L1518.6 129.179L1536.98 151.017L1574.24 119.648C1581.12 113.864 1582.56 104.312 1577.47 98.2721ZM1441.83 63.2013C1436.75 57.1616 1427.09 56.9549 1420.22 62.7386C1413.35 68.5223 1411.91 78.0745 1416.99 84.1141L1404.57 94.5705C1374.52 119.862 1365.24 159.738 1380.46 189.484L1354.38 211.442C1347.51 217.226 1346.06 226.778 1351.15 232.818C1356.23 238.857 1365.89 239.064 1372.76 233.28L1398.85 211.322C1425.56 231.395 1466.44 229.053 1496.48 203.762L1508.9 193.305C1513.99 199.345 1523.65 199.552 1530.52 193.768C1537.39 187.984 1538.83 178.432 1533.75 172.392L1441.83 63.2013Z" fill="#F3C301"/>
<path d="M1262.17 327.775C1271.98 322.713 1275.84 310.65 1270.78 300.833C1265.71 291.016 1253.65 287.162 1243.83 292.224L1262.17 327.775ZM168.4 398.003L161.884 416.912L168.4 398.003ZM-18.9375 296.265L42.7992 348.899L68.7504 318.46L7.01372 265.826L-18.9375 296.265ZM161.884 416.912L191.721 427.194L204.753 389.377L174.916 379.095L161.884 416.912ZM711.297 374.635L721.249 378.738L736.493 341.757L726.541 337.654L711.297 374.635ZM1203.13 358.22L1262.17 327.775L1243.83 292.224L1184.8 322.669L1203.13 358.22ZM191.721 427.194C288.652 460.597 395.507 448.168 482.182 393.408L460.818 359.592C384.407 407.867 290.205 418.824 204.753 389.377L191.721 427.194ZM482.042 393.496C550.988 350.732 636.288 343.714 711.297 374.635L726.541 337.654C639.647 301.833 540.83 309.963 460.958 359.504L482.042 393.496ZM721.249 378.738C877.096 442.983 1053.31 435.481 1203.13 358.22L1184.8 322.669C1045.41 394.546 881.482 401.526 736.493 341.757L721.249 378.738ZM42.7992 348.899C77.8916 378.818 118.285 401.888 161.884 416.912L174.916 379.095C136.047 365.7 100.036 345.133 68.7504 318.46L42.7992 348.899ZM-103.544 273.199C-73.3137 267.896 -42.2933 276.352 -18.9375 296.265L7.01372 265.826C-25.4141 238.179 -68.4836 226.437 -110.456 233.801L-103.544 273.199Z" fill="#F3C301"/>
<path d="M1377 265L1381.05 275.949L1392 280L1381.05 284.051L1377 295L1372.95 284.051L1362 280L1372.95 275.949L1377 265Z" fill="#F3C301"/>
<path d="M1247 243L1251.05 253.949L1262 258L1251.05 262.051L1247 273L1242.95 262.051L1232 258L1242.95 253.949L1247 243Z" fill="#F3C301"/>
<path d="M1315.5 212L1317.26 216.744L1322 218.5L1317.26 220.256L1315.5 225L1313.74 220.256L1309 218.5L1313.74 216.744L1315.5 212Z" fill="#F3C301"/>
<path d="M1337.5 295L1339.26 299.744L1344 301.5L1339.26 303.256L1337.5 308L1335.74 303.256L1331 301.5L1335.74 299.744L1337.5 295Z" fill="#F3C301"/>
<path d="M1304.3 241.992L1283.61 249.043L1283.04 236.932L1304.3 241.992Z" fill="#F3C301"/>
<path d="M1289.13 311.654L1309.66 319.137L1302.52 328.931L1289.13 311.654Z" fill="#F3C301"/>
<path d="M1272.75 268.133L1272.97 278.8L1267.25 277.278L1272.75 268.133Z" fill="#F3C301"/>
<path d="M1316.12 261.562L1316.51 280.522L1306.35 277.816L1316.12 261.562Z" fill="#F3C301"/>
<path d="M1345.82 243.879L1346.04 254.546L1340.32 253.024L1345.82 243.879Z" fill="#F3C301"/>
</svg>
