<svg width="1920" height="305" viewBox="0 0 1920 305" fill="none" xmlns="http://www.w3.org/2000/svg">
<path d="M2057.49 165.872C2077.57 153.73 2084.01 127.603 2071.87 107.515C2059.73 87.4274 2033.6 80.9862 2013.52 93.1282L2057.49 165.872ZM933.5 155L924.093 113.554L922.877 113.83L921.68 114.177L933.5 155ZM1371.82 178.521L1358.03 218.722L1371.82 178.521ZM1420.76 195.306L1434.55 155.105L1420.76 195.306ZM0 85.5H16.3701V0.5H0V85.5ZM622.773 289.216L945.32 195.823L921.68 114.177L599.133 207.57L622.773 289.216ZM1358.03 218.722L1406.97 235.507L1434.55 155.105L1385.61 138.32L1358.03 218.722ZM942.907 196.446C1080.67 165.179 1224.41 172.893 1358.03 218.722L1385.61 138.32C1237.05 87.3691 1077.25 78.7936 924.093 113.554L942.907 196.446ZM239.972 183.064C337.266 287.934 485.365 329.003 622.773 289.216L599.133 207.57C492.578 238.423 377.732 206.576 302.284 125.253L239.972 183.064ZM1406.97 235.507C1623.42 309.747 1861.65 284.245 2057.49 165.872L2013.52 93.1282C1839.22 198.483 1627.19 221.179 1434.55 155.105L1406.97 235.507ZM16.3701 85.5C101.231 85.5 182.255 120.853 239.972 183.064L302.284 125.253C228.484 45.7056 124.88 0.5 16.3701 0.5V85.5Z" fill="#F3C301"/>
</svg>
