<svg width="32" height="19" viewBox="0 0 32 19" fill="none" xmlns="http://www.w3.org/2000/svg">
<path d="M0.932289 15.3067L14.9323 1.265C15.099 1.09833 15.2795 0.98 15.474 0.91C15.6684 0.84 15.8767 0.805556 16.099 0.806667C16.3212 0.806667 16.5295 0.841111 16.724 0.91C16.9184 0.978889 17.099 1.09722 17.2656 1.265L31.3073 15.3067C31.6962 15.6956 31.8906 16.1817 31.8906 16.765C31.8906 17.3483 31.6823 17.8483 31.2656 18.265C30.849 18.6817 30.3628 18.89 29.8073 18.89C29.2517 18.89 28.7656 18.6817 28.349 18.265L16.099 6.015L3.84896 18.265C3.46007 18.6539 2.98062 18.8483 2.41062 18.8483C1.84062 18.8483 1.34785 18.64 0.932289 18.2233C0.515623 17.8067 0.307289 17.3206 0.307289 16.765C0.307289 16.2094 0.515623 15.7233 0.932289 15.3067Z" fill=""/>
</svg>
