<svg width="28" height="28" viewBox="0 0 28 28" fill="none" xmlns="http://www.w3.org/2000/svg">
<path d="M26.2101 0.446198C27.0198 0.899688 27.6163 1.65621 27.8683 2.54941C28.1203 3.4426 28.0073 4.39933 27.5541 5.2092L16.0441 25.7632C15.7526 26.2839 15.3483 26.7328 14.8608 27.077C14.3733 27.4211 13.8149 27.6519 13.2267 27.7523C12.6384 27.8527 12.0352 27.8202 11.4611 27.6571C10.8871 27.4941 10.3568 27.2048 9.90907 26.8102L1.18607 19.1262C0.489615 18.5125 0.0654773 17.6472 0.00696601 16.7208C-0.0515453 15.7944 0.260363 14.8827 0.874074 14.1862C1.48778 13.4897 2.35303 13.0656 3.27946 13.0071C4.20589 12.9486 5.11762 13.2605 5.81407 13.8742L11.7501 19.1042L21.4461 1.7902C21.6706 1.38913 21.972 1.03621 22.3329 0.75161C22.6939 0.467006 23.1073 0.256287 23.5497 0.131483C23.9921 0.00667979 24.4547 -0.0297629 24.9112 0.0242361C25.3677 0.0782351 25.809 0.221618 26.2101 0.446198Z" fill="#fff"/>
</svg>
