<svg width="17" height="17" viewBox="0 0 17 17" fill="none" xmlns="http://www.w3.org/2000/svg">
<path d="M2.53472 0.417243L8.5 6.38227L14.4344 0.44815C14.5655 0.308632 14.7234 0.197023 14.8986 0.120015C15.0739 0.0430066 15.2629 0.00218565 15.4543 0C15.8642 0 16.2573 0.162812 16.5471 0.452621C16.8369 0.742429 16.9997 1.13549 16.9997 1.54534C17.0034 1.73481 16.9682 1.92301 16.8964 2.09839C16.8247 2.27378 16.7179 2.43266 16.5825 2.56527L10.5708 8.49939L16.5825 14.5108C16.8372 14.7599 16.9866 15.0974 16.9997 15.4534C16.9997 15.8633 16.8369 16.2563 16.5471 16.5462C16.2573 16.836 15.8642 16.9988 15.4543 16.9988C15.2574 17.0069 15.0609 16.9741 14.8773 16.9022C14.6937 16.8304 14.5271 16.7212 14.388 16.5815L8.5 10.6165L2.55018 16.5661C2.4196 16.7009 2.2636 16.8086 2.09119 16.8829C1.91878 16.9572 1.73337 16.9965 1.54566 16.9988C1.13579 16.9988 0.742712 16.836 0.452891 16.5462C0.163071 16.2563 0.000251448 15.8633 0.000251448 15.4534C-0.00335166 15.264 0.0318016 15.0758 0.103554 14.9004C0.175307 14.725 0.282145 14.5661 0.417512 14.4335L6.42915 8.49939L0.417512 2.488C0.162805 2.23883 0.0134486 1.90141 0.000251448 1.54534C0.000251448 1.13549 0.163071 0.742429 0.452891 0.452621C0.742712 0.162812 1.13579 0 1.54566 0C1.91656 0.00463603 2.272 0.154534 2.53472 0.417243Z" fill="#fff"/>
</svg>
