<svg width="23" height="23" viewBox="0 0 23 23" fill="none" xmlns="http://www.w3.org/2000/svg">
<path d="M4.79167 22.7128C4.26459 22.7128 3.81321 22.5252 3.43754 22.1502C3.06188 21.7752 2.87436 21.3238 2.875 20.7961V7.37943C2.875 6.85234 3.06284 6.40097 3.4385 6.0253C3.81417 5.64964 4.26522 5.46212 4.79167 5.46276H13.3448L11.4281 7.37943H4.79167V20.7961H18.2083V14.1357L20.125 12.219V20.7961C20.125 21.3232 19.9372 21.7746 19.5615 22.1502C19.1858 22.5259 18.7348 22.7134 18.2083 22.7128H4.79167ZM15.501 6.0138L16.8667 7.35547L10.5417 13.6805V15.0461H11.8833L18.2323 8.69713L19.5979 10.0388L12.6979 16.9628H8.625V12.8898L15.501 6.0138ZM19.5979 10.0388L15.501 6.0138L17.8969 3.61797C18.2802 3.23464 18.7396 3.04297 19.275 3.04297C19.8104 3.04297 20.2614 3.23464 20.6281 3.61797L21.9698 4.98359C22.3372 5.35095 22.5208 5.79818 22.5208 6.32526C22.5208 6.85234 22.3372 7.29957 21.9698 7.66693L19.5979 10.0388Z" fill="white"/>
</svg>
