<svg width="41" height="28" viewBox="0 0 41 28" fill="none" xmlns="http://www.w3.org/2000/svg">
<path d="M14.3754 0.799988C10.8016 0.799988 7.37418 2.21967 4.84713 4.74672C2.32007 7.27378 0.900391 10.7012 0.900391 14.275C0.900391 17.8488 2.32007 21.2762 4.84713 23.8033C7.37418 26.3303 10.8016 27.75 14.3754 27.75H26.6254C30.1992 27.75 33.6266 26.3303 36.1537 23.8033C38.6807 21.2762 40.1004 17.8488 40.1004 14.275C40.1004 10.7012 38.6807 7.27378 36.1537 4.74672C33.6266 2.21967 30.1992 0.799988 26.6254 0.799988H14.3754ZM10.7004 9.37499C10.7004 9.0501 10.8295 8.73851 11.0592 8.50878C11.2889 8.27905 11.6005 8.14999 11.9254 8.14999C12.2503 8.14999 12.5619 8.27905 12.7916 8.50878C13.0213 8.73851 13.1504 9.0501 13.1504 9.37499V13.05H16.8254C17.1503 13.05 17.4619 13.179 17.6916 13.4088C17.9213 13.6385 18.0504 13.9501 18.0504 14.275C18.0504 14.5999 17.9213 14.9115 17.6916 15.1412C17.4619 15.3709 17.1503 15.5 16.8254 15.5H13.1504V19.175C13.1504 19.4999 13.0213 19.8115 12.7916 20.0412C12.5619 20.2709 12.2503 20.4 11.9254 20.4C11.6005 20.4 11.2889 20.2709 11.0592 20.0412C10.8295 19.8115 10.7004 19.4999 10.7004 19.175V15.5H7.02539C6.7005 15.5 6.38892 15.3709 6.15918 15.1412C5.92945 14.9115 5.80039 14.5999 5.80039 14.275C5.80039 13.9501 5.92945 13.6385 6.15918 13.4088C6.38892 13.179 6.7005 13.05 7.02539 13.05H10.7004V9.37499ZM32.7504 10.6C32.7504 11.2498 32.4923 11.8729 32.0328 12.3324C31.5733 12.7919 30.9502 13.05 30.3004 13.05C29.6506 13.05 29.0274 12.7919 28.568 12.3324C28.1085 11.8729 27.8504 11.2498 27.8504 10.6C27.8504 9.95021 28.1085 9.32704 28.568 8.86758C29.0274 8.40811 29.6506 8.14999 30.3004 8.14999C30.9502 8.14999 31.5733 8.40811 32.0328 8.86758C32.4923 9.32704 32.7504 9.95021 32.7504 10.6ZM25.4004 20.4C24.7506 20.4 24.1274 20.1419 23.668 19.6824C23.2085 19.2229 22.9504 18.5998 22.9504 17.95C22.9504 17.3002 23.2085 16.677 23.668 16.2176C24.1274 15.7581 24.7506 15.5 25.4004 15.5C26.0502 15.5 26.6733 15.7581 27.1328 16.2176C27.5923 16.677 27.8504 17.3002 27.8504 17.95C27.8504 18.5998 27.5923 19.2229 27.1328 19.6824C26.6733 20.1419 26.0502 20.4 25.4004 20.4Z" fill="white"/>
</svg>
