<svg width="29" height="29" viewBox="0 0 29 29" fill="none" xmlns="http://www.w3.org/2000/svg">
<path d="M2.03842 2.09213C0 4.12189 0 7.38902 0 13.9225V15.0775C0 21.611 0 24.8782 2.03842 26.9078C4.07696 28.9375 7.35823 28.9375 13.92 28.9375H15.08C21.6418 28.9375 24.9231 28.9375 26.9615 26.9078C29 24.8782 29 21.611 29 15.0775V13.9225C29 7.38895 29 4.12182 26.9615 2.09213C24.9231 0.0625001 21.6418 0.0625 15.08 0.0625H13.92C7.35817 0.0625 4.07689 0.0625001 2.03842 2.09213ZM4.89375 8.8454H8.2046C8.31335 14.3557 10.7541 16.6897 12.6875 17.171V8.84533H15.805V13.5977C17.7141 13.3931 19.72 11.2275 20.3966 8.84533H23.5141C23.2591 10.0808 22.7508 11.2505 22.021 12.2815C21.2912 13.3124 20.3557 14.1824 19.2729 14.8369C20.4819 15.4345 21.5498 16.2808 22.4059 17.3199C23.262 18.359 23.8868 19.5672 24.2391 20.8646H20.8075C20.4913 19.7376 19.8478 18.7288 18.9578 17.9646C18.0679 17.2005 16.971 16.7151 15.805 16.5694V20.8646H15.4304C8.82085 20.8646 5.05085 16.3528 4.89375 8.84533V8.8454Z" fill="white"/>
</svg>
