<svg  viewBox="0 0 131 131" fill="none" xmlns="http://www.w3.org/2000/svg">
<path d="M82.0487 99.8875C79.5924 99.8875 77.9549 99.0687 75.4986 98.25L65.6737 94.1562L55.8487 98.25C54.2112 99.0687 51.7549 99.8875 49.2986 99.8875C47.6611 99.8875 46.8424 99.8875 45.2049 99.0688L41.1111 131L65.6737 114.625L90.2361 131L85.3236 99.0688C84.5049 99.8875 82.8674 99.8875 82.0487 99.8875ZM105.792 48.3063C104.974 46.6688 104.974 44.2125 105.792 42.575L110.705 32.75C112.342 29.475 110.705 25.3813 106.611 23.7438L95.9674 19.65C94.3299 18.8313 92.6924 17.1938 91.8736 15.5562L87.7799 4.9125C86.9611 1.6375 84.5049 0 82.0487 0C81.2299 0 79.5924 0 78.7737 0.81875L68.1299 5.73125H65.6737C64.8549 5.73125 64.0361 5.73125 63.2174 4.9125L52.5737 0.81875C51.7549 0 50.1174 0 49.2986 0C46.8424 0 44.3861 1.6375 42.7486 4.09375L38.6549 15.5562C38.6549 17.1938 37.0174 18.8313 35.3799 19.65L23.9174 23.7438C20.6424 24.5625 19.0049 28.6562 20.6424 32.75L25.5549 43.3938C26.3736 45.0312 26.3736 47.4875 25.5549 49.125L20.6424 58.95C19.0049 62.225 20.6424 66.3187 24.7361 67.9563L35.3799 72.05C37.0174 72.8688 38.6549 74.5062 39.4736 76.1438L43.5674 86.7875C44.3862 90.0625 46.8424 91.7 49.2986 91.7C50.1174 91.7 50.9361 91.7 51.7549 90.8813L62.3987 85.9688C63.2174 85.9688 64.0362 85.15 64.8549 85.15C65.6737 85.15 66.4924 85.15 67.3111 85.9688L77.9549 90.8813C78.7737 91.7 79.5924 91.7 80.4112 91.7C82.8674 91.7 85.3236 90.0625 86.9612 87.6062L91.0549 76.9625C91.8736 75.325 93.5111 73.6875 95.1487 72.8687L105.792 68.775C109.067 67.1375 111.524 63.0438 109.886 59.7688L105.792 48.3063ZM65.6737 78.6C47.6611 78.6 32.9236 63.8625 32.9236 45.85C32.9236 27.8375 47.6611 13.1 65.6737 13.1C83.6861 13.1 98.4236 27.8375 98.4236 45.85C98.4236 63.8625 83.6861 78.6 65.6737 78.6Z" fill="#A8A8A8"/>
<path d="M90.2363 45.85C90.2363 52.3644 87.6485 58.6119 83.0421 63.2183C78.4358 67.8246 72.1882 70.4125 65.6738 70.4125C59.1594 70.4125 52.9119 67.8246 48.3055 63.2183C43.6992 58.6119 41.1113 52.3644 41.1113 45.85C41.1113 39.3356 43.6992 33.088 48.3055 28.4817C52.9119 23.8753 59.1594 21.2875 65.6738 21.2875C72.1882 21.2875 78.4358 23.8753 83.0421 28.4817C87.6485 33.088 90.2363 39.3356 90.2363 45.85Z" fill="#DFDFDF"/>
</svg>
