<svg width="1920" height="365" viewBox="0 0 1920 365" fill="none" xmlns="http://www.w3.org/2000/svg">
<path d="M1982.99 165.872C2003.07 153.73 2009.51 127.603 1997.37 107.515C1985.23 87.4274 1959.1 80.9862 1939.02 93.1282L1982.99 165.872ZM859 155L841.803 116.135L841.715 116.174L841.627 116.213L859 155ZM-74.5 85.5H-72.7534V0.5H-74.5V85.5ZM559.636 335.653L876.373 193.787L841.627 116.213L524.891 258.078L559.636 335.653ZM1295.27 191.632L1344.02 212.584L1377.58 134.491L1328.83 113.54L1295.27 191.632ZM1978.07 168.841L1982.99 165.872L1939.02 93.1282L1934.1 96.097L1978.07 168.841ZM876.197 193.865C1009.5 134.881 1161.35 134.072 1295.27 191.632L1328.83 113.54C1173.19 46.6455 996.724 47.5857 841.803 116.135L876.197 193.865ZM144.04 206.988C230.513 348.275 408.459 403.365 559.636 335.653L524.891 258.078C412.725 308.317 280.698 267.443 216.539 162.616L144.04 206.988ZM1344.02 212.584C1550.05 301.136 1786.15 284.848 1978.07 168.841L1934.1 96.097C1765.65 197.918 1558.42 212.215 1377.58 134.491L1344.02 212.584ZM-72.7534 85.5C15.7313 85.5 97.8482 131.517 144.04 206.988L216.539 162.616C154.9 61.9062 45.3219 0.5 -72.7534 0.5V85.5Z" fill="#F3C301"/>
</svg>
