<svg width="32" height="32" viewBox="0 0 32 32" fill="none" xmlns="http://www.w3.org/2000/svg">
<path d="M18.6666 13.1997V10.933C19.3999 10.6219 20.1501 10.3886 20.9173 10.233C21.6835 10.0775 22.4888 9.99967 23.3333 9.99967C23.911 9.99967 24.4777 10.0441 25.0333 10.133C25.5888 10.2219 26.1333 10.333 26.6666 10.4663V12.5997C26.1333 12.3997 25.5946 12.2499 25.0506 12.1503C24.5057 12.0499 23.9333 11.9997 23.3333 11.9997C22.4888 11.9997 21.6777 12.1055 20.8999 12.317C20.1221 12.5277 19.3777 12.8219 18.6666 13.1997ZM18.6666 20.533V18.2663C19.3999 17.9552 20.1501 17.7219 20.9173 17.5663C21.6835 17.4108 22.4888 17.333 23.3333 17.333C23.911 17.333 24.4777 17.3775 25.0333 17.4663C25.5888 17.5552 26.1333 17.6663 26.6666 17.7997V19.933C26.1333 19.733 25.5946 19.5832 25.0506 19.4837C24.5057 19.3832 23.9333 19.333 23.3333 19.333C22.4888 19.333 21.6777 19.433 20.8999 19.633C20.1221 19.833 19.3777 20.133 18.6666 20.533ZM18.6666 16.8663V14.5997C19.3999 14.2886 20.1501 14.0552 20.9173 13.8997C21.6835 13.7441 22.4888 13.6663 23.3333 13.6663C23.911 13.6663 24.4777 13.7108 25.0333 13.7997C25.5888 13.8886 26.1333 13.9997 26.6666 14.133V16.2663C26.1333 16.0663 25.5946 15.9166 25.0506 15.817C24.5057 15.7166 23.9333 15.6663 23.3333 15.6663C22.4888 15.6663 21.6777 15.7721 20.8999 15.9837C20.1221 16.1943 19.3777 16.4886 18.6666 16.8663ZM8.66659 21.333C9.71103 21.333 10.7279 21.4494 11.7173 21.6823C12.7057 21.9161 13.6888 22.2663 14.6666 22.733V9.59967C13.7555 9.06634 12.7888 8.66634 11.7666 8.39967C10.7444 8.13301 9.71103 7.99967 8.66659 7.99967C7.86659 7.99967 7.07236 8.07745 6.28392 8.23301C5.49459 8.38856 4.73325 8.6219 3.99992 8.93301V22.133C4.7777 21.8663 5.55014 21.6663 6.31725 21.533C7.08347 21.3997 7.86659 21.333 8.66659 21.333ZM17.3333 22.733C18.311 22.2663 19.2946 21.9161 20.2839 21.6823C21.2724 21.4494 22.2888 21.333 23.3333 21.333C24.1333 21.333 24.9168 21.3997 25.6839 21.533C26.4501 21.6663 27.2221 21.8663 27.9999 22.133V8.93301C27.2666 8.6219 26.5057 8.38856 25.7173 8.23301C24.9279 8.07745 24.1333 7.99967 23.3333 7.99967C22.2888 7.99967 21.2555 8.13301 20.2333 8.39967C19.211 8.66634 18.2444 9.06634 17.3333 9.59967V22.733ZM15.9999 26.6663C14.9333 25.8219 13.7777 25.1663 12.5333 24.6997C11.2888 24.233 9.99992 23.9997 8.66659 23.9997C7.73325 23.9997 6.81681 24.1219 5.91725 24.3663C5.01681 24.6108 4.15547 24.9552 3.33325 25.3997C2.86659 25.6441 2.41681 25.633 1.98392 25.3663C1.55014 25.0997 1.33325 24.7108 1.33325 24.1997V8.13301C1.33325 7.88856 1.39459 7.65523 1.51725 7.43301C1.63903 7.21079 1.82214 7.04412 2.06659 6.93301C3.08881 6.39967 4.15547 5.99967 5.26659 5.73301C6.3777 5.46634 7.51103 5.33301 8.66659 5.33301C9.95547 5.33301 11.2168 5.49967 12.4506 5.83301C13.6835 6.16634 14.8666 6.66634 15.9999 7.33301C17.1333 6.66634 18.3168 6.16634 19.5506 5.83301C20.7835 5.49967 22.0444 5.33301 23.3333 5.33301C24.4888 5.33301 25.6221 5.46634 26.7333 5.73301C27.8444 5.99967 28.911 6.39967 29.9333 6.93301C30.1777 7.04412 30.3613 7.21079 30.4839 7.43301C30.6057 7.65523 30.6666 7.88856 30.6666 8.13301V24.1997C30.6666 24.7108 30.4501 25.0997 30.0173 25.3663C29.5835 25.633 29.1333 25.6441 28.6666 25.3997C27.8444 24.9552 26.983 24.6108 26.0826 24.3663C25.183 24.1219 24.2666 23.9997 23.3333 23.9997C21.9999 23.9997 20.711 24.233 19.4666 24.6997C18.2221 25.1663 17.0666 25.8219 15.9999 26.6663Z" fill="white"/>
</svg>
