<svg width="24" height="21" viewBox="0 0 24 21" fill="none" xmlns="http://www.w3.org/2000/svg">
<path fill-rule="evenodd" clip-rule="evenodd" d="M21.2487 0.983711C21.5267 0.866701 21.831 0.826345 22.1299 0.866843C22.4288 0.907341 22.7114 1.02721 22.9483 1.21398C23.1851 1.40075 23.3676 1.64759 23.4767 1.9288C23.5857 2.21002 23.6174 2.51533 23.5685 2.81296L21.017 18.2896C20.7695 19.7825 19.1315 20.6386 17.7624 19.895C16.6171 19.2728 14.9161 18.3143 13.3861 17.3142C12.6211 16.8136 10.2777 15.2105 10.5657 14.0697C10.8132 13.0943 14.7507 9.42909 17.0007 7.24996C17.8839 6.39384 17.4811 5.89996 16.4382 6.68746C13.8474 8.64271 9.69049 11.6161 8.31574 12.4531C7.10299 13.1911 6.47074 13.3171 5.71474 13.1911C4.33548 12.9616 3.05636 12.6061 2.01236 12.173C0.60161 11.588 0.670235 9.64846 2.01124 9.08371L21.2487 0.983711Z" fill="#340345"/>
</svg>
